<svg width="204" height="19" viewBox="0 0 204 19" fill="none" xmlns="http://www.w3.org/2000/svg">
  <path d="M76.8455 18H74.0662L76.0248 13.5793L72.1077 4.77515H74.9056L77.1764 10.2659C77.2605 10.4692 77.5487 10.4688 77.6322 10.2653L79.8859 4.77515H82.7025L76.8455 18Z" fill="#0C0A09"/>
  <path d="M68.4037 14.1015V7.01346H66.5198V4.77512H68.4037V3.56269C68.4037 2.45596 68.7395 1.58549 69.411 0.951294C70.0825 0.317098 70.9343 0 71.9664 0C72.6006 0 73.1415 0.0683936 73.5892 0.205181V2.46217C73.2908 2.35026 72.9426 2.2943 72.5446 2.2943C71.9851 2.2943 71.5809 2.41865 71.3322 2.66735C71.0835 2.90362 70.9591 3.30777 70.9591 3.87979V4.77512H73.5892V7.01346H70.9591V14.1015H68.4037Z" fill="#0C0A09"/>
  <path d="M64.2336 3.24559C63.7984 3.24559 63.4191 3.09015 63.0958 2.77927C62.7725 2.45596 62.6108 2.07046 62.6108 1.6228C62.6108 1.17513 62.7725 0.795854 63.0958 0.484974C63.4191 0.161658 63.7984 0 64.2336 0C64.6937 0 65.0792 0.161658 65.3901 0.484974C65.7134 0.795854 65.8751 1.17513 65.8751 1.6228C65.8751 2.07046 65.7134 2.45596 65.3901 2.77927C65.0792 3.09015 64.6937 3.24559 64.2336 3.24559ZM62.9652 14.1015V4.77512H65.5207V14.1015H62.9652Z" fill="#0C0A09"/>
  <path d="M58.5156 14.1014V0.111816H61.0711V14.1014H58.5156Z" fill="#0C0A09"/>
  <path d="M55.6288 14.2134C54.5842 14.2134 53.7262 13.9274 53.0547 13.3554C52.3956 12.771 52.0661 11.9316 52.0661 10.8373V7.01346H50.1821V4.77512H52.0661V2.18237H54.6215V4.77512H57.2515V7.01346H54.6215V10.3337C54.6215 10.9057 54.7459 11.316 54.9946 11.5647C55.2433 11.801 55.6474 11.9191 56.207 11.9191C56.6049 11.9191 56.9531 11.8632 57.2515 11.7513V14.0083C56.8039 14.1451 56.2629 14.2134 55.6288 14.2134Z" fill="#0C0A09"/>
  <path d="M40.6177 14.1017V4.77525H43.1731V5.43633C43.1731 5.55783 43.3389 5.61183 43.4201 5.52139C43.989 4.88718 44.7958 4.57007 45.8405 4.57007C46.9596 4.57007 47.8363 4.94313 48.4705 5.68924C49.1171 6.42292 49.4405 7.4053 49.4405 8.63638V14.1017H46.885V9.0654C46.885 8.38146 46.742 7.85297 46.456 7.47991C46.17 7.09442 45.7659 6.90167 45.2436 6.90167C44.6218 6.90167 44.1182 7.12551 43.7327 7.57317C43.3596 8.02084 43.1731 8.67991 43.1731 9.55037V14.1017H40.6177Z" fill="#0C0A09"/>
  <path d="M37.4363 3.24559C37.001 3.24559 36.6218 3.09015 36.2985 2.77927C35.9751 2.45596 35.8135 2.07046 35.8135 1.6228C35.8135 1.17513 35.9751 0.795854 36.2985 0.484974C36.6218 0.161658 37.001 0 37.4363 0C37.8964 0 38.2819 0.161658 38.5927 0.484974C38.9161 0.795854 39.0777 1.17513 39.0777 1.6228C39.0777 2.07046 38.9161 2.45596 38.5927 2.77927C38.2819 3.09015 37.8964 3.24559 37.4363 3.24559ZM36.1679 14.1015V4.77512H38.7233V14.1015H36.1679Z" fill="#0C0A09"/>
  <path d="M31.8297 14.1017V9.12136C31.8297 7.64157 31.3447 6.90167 30.3747 6.90167C29.8151 6.90167 29.3675 7.11307 29.0317 7.53587C28.7084 7.95867 28.5343 8.58664 28.5094 9.4198V14.1017H25.954V9.12136C25.954 7.64157 25.469 6.90167 24.4991 6.90167C23.9271 6.90167 23.4732 7.12551 23.1374 7.57317C22.8017 8.02084 22.6338 8.67991 22.6338 9.55037V14.1017H20.0784V4.77525H22.6338V5.4434C22.6338 5.56427 22.7967 5.61771 22.8767 5.52708C23.4397 4.88907 24.1857 4.57007 25.1146 4.57007C26.341 4.57007 27.2657 5.07469 27.8887 6.08392C27.9408 6.16825 28.0683 6.16687 28.1202 6.08241C28.3891 5.64448 28.7613 5.29581 29.2369 5.03639C29.7841 4.72551 30.3374 4.57007 30.897 4.57007C32.0037 4.57007 32.8618 4.93691 33.4711 5.67059C34.0804 6.40426 34.3851 7.41152 34.3851 8.69234V14.1017H31.8297Z" fill="#0C0A09"/>
  <path d="M16.305 6.13856V1.08616C16.305 0.543984 15.8652 0.111816 15.3311 0.111816H10.281C9.48777 0.111816 8.70238 0.268962 7.97197 0.567549C7.24155 0.873994 6.57397 1.31402 6.01634 1.87977L5.97707 1.91906C5.2388 2.66552 4.71259 3.59271 4.44556 4.61419C4.92465 4.48847 5.41942 4.42561 5.91422 4.41775C7.23368 4.40204 8.5296 4.82635 9.58203 5.61996C10.5324 6.32715 11.2549 7.30148 11.6476 8.42511C12.056 9.56446 12.1031 10.806 11.7968 11.9767C12.81 11.7096 13.7446 11.1831 14.4907 10.4445L14.53 10.4052C15.0876 9.84733 15.5353 9.17944 15.8416 8.44869C16.1479 7.71793 16.2971 6.93218 16.2971 6.13856H16.305Z" fill="#18E299"/>
  <path d="M4.29481 6.05311C4.30264 4.50318 4.92076 3.01587 6.00834 1.9043L1.80665 6.1079C1.791 6.12356 1.77534 6.13139 1.7597 6.14704C0.734705 7.16468 0.116597 8.52675 0.0148805 9.96709C-0.0790116 11.3135 0.273076 12.6442 1.02421 13.7558C1.09586 13.8618 1.29026 13.8967 1.39981 13.795L3.97401 11.2274C4.77992 10.4211 5.0303 9.22343 4.64691 8.151C4.40436 7.48562 4.28699 6.77328 4.29481 6.05311Z" fill="#0C8C5E"/>
  <path d="M14.5056 10.4058C13.6997 11.1964 12.6904 11.7443 11.5949 11.987C10.4917 12.2297 9.34938 12.1592 8.28526 11.7835C8.28526 11.7835 8.27742 11.7835 8.2696 11.7835C7.19766 11.3999 6.00056 11.6504 5.19465 12.4489L2.62041 15.0164C2.51087 15.126 2.52651 15.3061 2.65953 15.3922C3.77059 16.1358 5.10076 16.4959 6.44654 16.402C7.88622 16.3002 9.23982 15.6818 10.2648 14.6563L10.3039 14.6172L14.5056 10.4136V10.4058Z" fill="#0C8C5E"/>
  <path d="M87.9874 17.9142V4.41424H89.8539V6.00586H90.0137C90.1245 5.80131 90.2843 5.56481 90.4931 5.29634C90.7019 5.02788 90.9917 4.7935 91.3624 4.59322C91.7332 4.38867 92.2232 4.2864 92.8326 4.2864C93.6252 4.2864 94.3326 4.48668 94.9548 4.88725C95.5769 5.28782 96.0649 5.86523 96.4185 6.6195C96.7765 7.37376 96.9555 8.28143 96.9555 9.34251C96.9555 10.4036 96.7786 11.3134 96.4249 12.0719C96.0712 12.8262 95.5854 13.4078 94.9676 13.8169C94.3497 14.2218 93.6444 14.4242 92.8518 14.4242C92.2552 14.4242 91.7673 14.324 91.388 14.1238C91.013 13.9235 90.719 13.6891 90.5059 13.4206C90.2928 13.1522 90.1288 12.9135 90.0137 12.7047H89.8987V17.9142H87.9874ZM89.8603 9.32333C89.8603 10.0137 89.9604 10.6188 90.1607 11.1387C90.361 11.6586 90.6508 12.0655 91.0301 12.3596C91.4093 12.6493 91.8738 12.7942 92.4235 12.7942C92.9945 12.7942 93.4718 12.6429 93.8553 12.3404C94.2389 12.0336 94.5286 11.6181 94.7247 11.0939C94.9249 10.5698 95.0251 9.97958 95.0251 9.32333C95.0251 8.6756 94.9271 8.09393 94.731 7.5783C94.5393 7.06268 94.2495 6.65572 93.8617 6.35742C93.4782 6.05913 92.9988 5.90998 92.4235 5.90998C91.8695 5.90998 91.4008 6.05273 91.0173 6.33825C90.638 6.62376 90.3504 7.02219 90.1543 7.53356C89.9583 8.04492 89.8603 8.64151 89.8603 9.32333ZM98.7368 14.2324V4.41424H100.584V5.9739H100.686C100.865 5.44549 101.181 5.03001 101.632 4.72745C102.088 4.42063 102.604 4.26722 103.179 4.26722C103.299 4.26722 103.439 4.27148 103.601 4.28001C103.767 4.28853 103.897 4.29918 103.991 4.31197V6.14009C103.914 6.11879 103.778 6.09535 103.582 6.06978C103.386 6.03995 103.19 6.02504 102.994 6.02504C102.542 6.02504 102.14 6.12092 101.786 6.31268C101.436 6.50018 101.159 6.76225 100.955 7.0989C100.75 7.43129 100.648 7.81055 100.648 8.23668V14.2324H98.7368ZM109.069 14.4306C108.149 14.4306 107.345 14.2196 106.659 13.7978C105.973 13.3759 105.441 12.7857 105.061 12.0272C104.682 11.2686 104.492 10.3823 104.492 9.36807C104.492 8.34961 104.682 7.45898 105.061 6.6962C105.441 5.93342 105.973 5.34109 106.659 4.91921C107.345 4.49734 108.149 4.2864 109.069 4.2864C109.99 4.2864 110.793 4.49734 111.479 4.91921C112.165 5.34109 112.698 5.93342 113.077 6.6962C113.456 7.45898 113.646 8.34961 113.646 9.36807C113.646 10.3823 113.456 11.2686 113.077 12.0272C112.698 12.7857 112.165 13.3759 111.479 13.7978C110.793 14.2196 109.99 14.4306 109.069 14.4306ZM109.076 12.8262C109.672 12.8262 110.166 12.6685 110.558 12.3532C110.95 12.0378 111.24 11.6181 111.428 11.0939C111.62 10.5698 111.715 9.99236 111.715 9.36168C111.715 8.73526 111.62 8.15998 111.428 7.63583C111.24 7.10742 110.95 6.68342 110.558 6.36381C110.166 6.04421 109.672 5.88441 109.076 5.88441C108.475 5.88441 107.976 6.04421 107.58 6.36381C107.188 6.68342 106.896 7.10742 106.704 7.63583C106.517 8.15998 106.423 8.73526 106.423 9.36168C106.423 9.99236 106.517 10.5698 106.704 11.0939C106.896 11.6181 107.188 12.0378 107.58 12.3532C107.976 12.6685 108.475 12.8262 109.076 12.8262ZM119.095 14.4242C118.302 14.4242 117.595 14.2218 116.972 13.8169C116.355 13.4078 115.869 12.8262 115.515 12.0719C115.166 11.3134 114.991 10.4036 114.991 9.34251C114.991 8.28143 115.168 7.37376 115.521 6.6195C115.879 5.86523 116.369 5.28782 116.992 4.88725C117.614 4.48668 118.319 4.2864 119.107 4.2864C119.717 4.2864 120.207 4.38867 120.578 4.59322C120.953 4.7935 121.242 5.02788 121.447 5.29634C121.656 5.56481 121.818 5.80131 121.933 6.00586H122.048V1.14151H123.959V14.2324H122.092V12.7047H121.933C121.818 12.9135 121.651 13.1522 121.434 13.4206C121.221 13.6891 120.927 13.9235 120.552 14.1238C120.177 14.324 119.691 14.4242 119.095 14.4242ZM119.516 12.7942C120.066 12.7942 120.531 12.6493 120.91 12.3596C121.293 12.0655 121.583 11.6586 121.779 11.1387C121.98 10.6188 122.08 10.0137 122.08 9.32333C122.08 8.64151 121.982 8.04492 121.786 7.53356C121.59 7.02219 121.302 6.62376 120.923 6.33825C120.543 6.05273 120.075 5.90998 119.516 5.90998C118.941 5.90998 118.462 6.05913 118.078 6.35742C117.695 6.65572 117.405 7.06268 117.209 7.5783C117.017 8.09393 116.921 8.6756 116.921 9.32333C116.921 9.97958 117.019 10.5698 117.215 11.0939C117.411 11.6181 117.701 12.0336 118.085 12.3404C118.472 12.6429 118.95 12.7942 119.516 12.7942ZM132.546 10.1607V4.41424H134.464V14.2324H132.585V12.5321H132.482C132.256 13.0563 131.894 13.4931 131.396 13.8425C130.901 14.1877 130.286 14.3603 129.548 14.3603C128.918 14.3603 128.359 14.2218 127.874 13.9448C127.392 13.6635 127.013 13.248 126.736 12.6983C126.463 12.1486 126.327 11.4689 126.327 10.6593V4.41424H128.238V10.4292C128.238 11.0982 128.423 11.6309 128.794 12.0272C129.165 12.4235 129.646 12.6216 130.239 12.6216C130.597 12.6216 130.952 12.5321 131.306 12.3532C131.664 12.1742 131.96 11.9036 132.195 11.5414C132.433 11.1792 132.55 10.7189 132.546 10.1607ZM140.807 14.4306C139.857 14.4306 139.039 14.2154 138.353 13.785C137.671 13.3503 137.147 12.7516 136.78 11.9888C136.414 11.226 136.231 10.3525 136.231 9.36807C136.231 8.37092 136.418 7.49094 136.793 6.72816C137.168 5.96111 137.697 5.36239 138.378 4.932C139.06 4.5016 139.864 4.2864 140.788 4.2864C141.534 4.2864 142.199 4.42489 142.783 4.70188C143.366 4.97461 143.837 5.35813 144.195 5.85245C144.557 6.34677 144.773 6.92418 144.841 7.58469H142.981C142.878 7.12447 142.644 6.72816 142.278 6.39577C141.915 6.06339 141.43 5.89719 140.82 5.89719C140.288 5.89719 139.821 6.03782 139.42 6.31907C139.024 6.59606 138.715 6.99236 138.494 7.50799C138.272 8.01935 138.161 8.62447 138.161 9.32333C138.161 10.0392 138.27 10.6571 138.487 11.177C138.704 11.6969 139.011 12.0996 139.408 12.3851C139.808 12.6706 140.279 12.8134 140.82 12.8134C141.182 12.8134 141.511 12.7473 141.805 12.6152C142.103 12.4789 142.352 12.285 142.552 12.0336C142.757 11.7821 142.9 11.4796 142.981 11.1259H144.841C144.773 11.7608 144.566 12.3276 144.221 12.8262C143.876 13.3248 143.413 13.7168 142.834 14.0023C142.258 14.2878 141.583 14.4306 140.807 14.4306ZM151.108 4.41424V5.94833H145.745V4.41424H151.108ZM147.183 2.06197H149.094V11.3496C149.094 11.7203 149.15 11.9995 149.26 12.187C149.371 12.3702 149.514 12.4959 149.689 12.5641C149.868 12.628 150.062 12.66 150.27 12.66C150.424 12.66 150.558 12.6493 150.673 12.628C150.788 12.6067 150.878 12.5897 150.942 12.5769L151.287 14.1557C151.176 14.1983 151.018 14.2409 150.814 14.2836C150.609 14.3304 150.354 14.356 150.047 14.3603C149.544 14.3688 149.075 14.2793 148.64 14.0918C148.206 13.9043 147.854 13.6145 147.586 13.2225C147.317 12.8304 147.183 12.3382 147.183 11.7459V2.06197ZM161.382 18.1188C160.602 18.1188 159.931 18.0165 159.369 17.812C158.81 17.6074 158.354 17.3368 158.001 17.0002C157.647 16.6635 157.383 16.2949 157.208 15.8944L158.851 15.2168C158.966 15.4043 159.119 15.6025 159.311 15.8113C159.507 16.0243 159.771 16.2054 160.104 16.3546C160.44 16.5037 160.873 16.5783 161.401 16.5783C162.126 16.5783 162.724 16.4015 163.197 16.0478C163.67 15.6983 163.907 15.1401 163.907 14.373V12.4426H163.786C163.67 12.6515 163.504 12.8837 163.287 13.1394C163.074 13.3951 162.78 13.6167 162.405 13.8042C162.03 13.9917 161.542 14.0854 160.941 14.0854C160.166 14.0854 159.467 13.9043 158.844 13.5421C158.227 13.1756 157.737 12.6365 157.374 11.9249C157.016 11.209 156.837 10.329 156.837 9.28498C156.837 8.24094 157.014 7.34606 157.368 6.60032C157.726 5.85458 158.216 5.28356 158.838 4.88725C159.46 4.48668 160.166 4.2864 160.954 4.2864C161.563 4.2864 162.055 4.38867 162.43 4.59322C162.805 4.7935 163.097 5.02788 163.306 5.29634C163.519 5.56481 163.683 5.80131 163.798 6.00586H163.939V4.41424H165.812V14.4498C165.812 15.2935 165.616 15.986 165.224 16.5272C164.832 17.0684 164.301 17.4689 163.632 17.7289C162.967 17.9888 162.217 18.1188 161.382 18.1188ZM161.363 12.5002C161.913 12.5002 162.377 12.3723 162.756 12.1167C163.14 11.8567 163.43 11.486 163.626 11.0044C163.826 10.5186 163.926 9.93697 163.926 9.25941C163.926 8.5989 163.828 8.01722 163.632 7.51438C163.436 7.01154 163.148 6.6195 162.769 6.33825C162.39 6.05273 161.921 5.90998 161.363 5.90998C160.788 5.90998 160.308 6.05913 159.925 6.35742C159.541 6.65146 159.251 7.05202 159.055 7.55913C158.864 8.06623 158.768 8.63299 158.768 9.25941C158.768 9.90288 158.866 10.4675 159.062 10.9533C159.258 11.4391 159.548 11.8184 159.931 12.0911C160.319 12.3638 160.796 12.5002 161.363 12.5002ZM174.234 10.1607V4.41424H176.152V14.2324H174.273V12.5321H174.171C173.945 13.0563 173.582 13.4931 173.084 13.8425C172.59 14.1877 171.974 14.3603 171.237 14.3603C170.606 14.3603 170.048 14.2218 169.562 13.9448C169.08 13.6635 168.701 13.248 168.424 12.6983C168.151 12.1486 168.015 11.4689 168.015 10.6593V4.41424H169.926V10.4292C169.926 11.0982 170.112 11.6309 170.482 12.0272C170.853 12.4235 171.335 12.6216 171.927 12.6216C172.285 12.6216 172.641 12.5321 172.994 12.3532C173.352 12.1742 173.649 11.9036 173.883 11.5414C174.122 11.1792 174.239 10.7189 174.234 10.1607ZM178.36 14.2324V4.41424H180.271V14.2324H178.36ZM179.325 2.89932C178.993 2.89932 178.707 2.78853 178.469 2.56694C178.234 2.34109 178.117 2.07262 178.117 1.76154C178.117 1.4462 178.234 1.17773 178.469 0.956143C178.707 0.730291 178.993 0.617365 179.325 0.617365C179.658 0.617365 179.941 0.730291 180.175 0.956143C180.414 1.17773 180.533 1.4462 180.533 1.76154C180.533 2.07262 180.414 2.34109 180.175 2.56694C179.941 2.78853 179.658 2.89932 179.325 2.89932ZM186.158 14.4242C185.365 14.4242 184.658 14.2218 184.036 13.8169C183.418 13.4078 182.932 12.8262 182.578 12.0719C182.229 11.3134 182.054 10.4036 182.054 9.34251C182.054 8.28143 182.231 7.37376 182.585 6.6195C182.943 5.86523 183.433 5.28782 184.055 4.88725C184.677 4.48668 185.382 4.2864 186.171 4.2864C186.78 4.2864 187.27 4.38867 187.641 4.59322C188.016 4.7935 188.306 5.02788 188.51 5.29634C188.719 5.56481 188.881 5.80131 188.996 6.00586H189.111V1.14151H191.022V14.2324H189.156V12.7047H188.996C188.881 12.9135 188.715 13.1522 188.497 13.4206C188.284 13.6891 187.99 13.9235 187.615 14.1238C187.24 14.324 186.755 14.4242 186.158 14.4242ZM186.58 12.7942C187.13 12.7942 187.594 12.6493 187.973 12.3596C188.357 12.0655 188.647 11.6586 188.843 11.1387C189.043 10.6188 189.143 10.0137 189.143 9.32333C189.143 8.64151 189.045 8.04492 188.849 7.53356C188.653 7.02219 188.365 6.62376 187.986 6.33825C187.607 6.05273 187.138 5.90998 186.58 5.90998C186.005 5.90998 185.525 6.05913 185.142 6.35742C184.758 6.65572 184.468 7.06268 184.272 7.5783C184.081 8.09393 183.985 8.6756 183.985 9.32333C183.985 9.97958 184.083 10.5698 184.279 11.0939C184.475 11.6181 184.764 12.0336 185.148 12.3404C185.536 12.6429 186.013 12.7942 186.58 12.7942ZM197.622 14.4306C196.654 14.4306 195.821 14.2239 195.122 13.8105C194.428 13.3929 193.891 12.807 193.512 12.0527C193.137 11.2942 192.949 10.4057 192.949 9.38725C192.949 8.38157 193.137 7.49521 193.512 6.72816C193.891 5.96111 194.419 5.36239 195.097 4.932C195.779 4.5016 196.575 4.2864 197.487 4.2864C198.041 4.2864 198.578 4.37802 199.098 4.56126C199.618 4.7445 200.085 5.03214 200.498 5.42418C200.911 5.81623 201.237 6.32546 201.476 6.95188C201.715 7.57404 201.834 8.33043 201.834 9.22106V9.89862H194.029V8.4668H199.961C199.961 7.96396 199.859 7.51864 199.654 7.13086C199.45 6.73881 199.162 6.42986 198.791 6.20401C198.425 5.97816 197.994 5.86523 197.5 5.86523C196.963 5.86523 196.494 5.99734 196.094 6.26154C195.698 6.52148 195.391 6.86239 195.173 7.28427C194.96 7.70188 194.854 8.15572 194.854 8.64577V9.76438C194.854 10.4206 194.969 10.9789 195.199 11.4391C195.433 11.8993 195.759 12.2509 196.177 12.4938C196.595 12.7324 197.083 12.8517 197.641 12.8517C198.003 12.8517 198.333 12.8006 198.632 12.6983C198.93 12.5918 199.188 12.4341 199.405 12.2253C199.622 12.0165 199.789 11.7587 199.904 11.4519L201.713 11.7779C201.568 12.3105 201.308 12.7772 200.933 13.1777C200.562 13.574 200.095 13.883 199.533 14.1046C198.975 14.3219 198.338 14.4306 197.622 14.4306Z" fill="#78716C"/>
</svg>
